HIERARCHY
ROOT Hips
{
    OFFSET 13.132318496704102 78.97530746459961 -18.18548583984375
    CHANNELS 6 Xposition Yposition Zposition Zrotation Xrotation Yrotation
    JOINT RightUpLeg
    {
        OFFSET -13.132318496704102 0.0 0.0
        CHANNELS 3 Zrotation Xrotation Yrotation
        JOINT RightLeg
        {
            OFFSET 0.0 -33.5115966796875 0.0
            CHANNELS 3 Zrotation Xrotation Yrotation
            JOINT RightFoot
            {
                OFFSET 0.0 -45.46371078491211 0.0
                CHANNELS 3 Zrotation Xrotation Yrotation
                End Site
                {
                    OFFSET 0.0 0.0 18.18548583984375
                }
            }
        }
    }
    JOINT LeftUpLeg
    {
        OFFSET 13.132318496704102 0.0 0.0
        CHANNELS 3 Zrotation Xrotation Yrotation
        JOINT LeftLeg
        {
            OFFSET 0.0 -33.5115966796875 0.0
            CHANNELS 3 Zrotation Xrotation Yrotation
            JOINT LeftFoot
            {
                OFFSET 0.0 -45.46371078491211 0.0
                CHANNELS 3 Zrotation Xrotation Yrotation
                End Site
                {
                    OFFSET 0.0 0.0 18.18548583984375
                }
            }
        }
    }
    JOINT Spine
    {
        OFFSET 0.0 22.4312801361084 0.0
        CHANNELS 3 Zrotation Xrotation Yrotation
        JOINT Spine3
        {
            OFFSET 0.0 25.037548065185547 0.0
            CHANNELS 3 Zrotation Xrotation Yrotation
            JOINT Neck
            {
                OFFSET 0.0 10.787965774536133 0.0
                CHANNELS 3 Zrotation Xrotation Yrotation
                End Site
                {
                    OFFSET 0.0 4.315186500549316 0.0
                }
            }
            JOINT LeftArm
            {
                OFFSET 14.44320011138916 0.0 0.0
                CHANNELS 3 Zrotation Xrotation Yrotation
                JOINT LeftForeArm
                {
                    OFFSET 26.857906341552734 0.0 0.0
                    CHANNELS 3 Zrotation Xrotation Yrotation
                    JOINT LeftHand
                    {
                        OFFSET 20.155702590942383 0.0 0.0
                        CHANNELS 3 Zrotation Xrotation Yrotation
                        End Site
                        {
                            OFFSET 8.062280654907227 0.0 0.0
                        }
                    }
                }
            }
            JOINT RightArm
            {
                OFFSET -14.44320011138916 0.0 0.0
                CHANNELS 3 Zrotation Xrotation Yrotation
                JOINT RightForeArm
                {
                    OFFSET -26.857906341552734 0.0 0.0
                    CHANNELS 3 Zrotation Xrotation Yrotation
                    JOINT RightHand
                    {
                        OFFSET -20.155702590942383 0.0 0.0
                        CHANNELS 3 Zrotation Xrotation Yrotation
                        End Site
                        {
                            OFFSET -8.062280654907227 0.0 0.0
                        }
                    }
                }
            }
        }
    }
}
MOTION
Frames: 9
Frame Time: 0.03333333333333333
-3.349832695676014e-05 73.7586898803711 -0.0008705346845090389 -1.8894936811530068 -6.790776510502985 -19.636072361977533 -11.534651312542586 -38.782980886529145 -5.5383786628249485 18.20719039976204 78.01726899782281 -11.116435129207968 7.951386703658792e-16 1.987846675914698e-16 1.3914926731402886e-15 4.817256909164554 -41.98326605518717 5.084703206536055 -11.455838421448986 72.51392850916146 5.562780034419069 3.4787316828507215e-16 3.10601043111672e-18 1.4349768191759226e-15 0.7907934854876537 21.812956025064533 -1.3161081697529347 9.593620554186518e-08 -8.411710323530862e-07 -2.494841767720455 0.10486163317500048 -8.488121485249005 178.11160860204402 111.4909705202401 -12.746919481470504 -156.69810891298536 1.068912428842386e-06 -1.593940184981192e-06 104.89123608823623 6.3611093629270335e-15 0.0 0.0 -116.46832113890511 -16.899972692491 154.88206104273817 1.811032648198356e-06 3.367133212756953e-06 -96.59119120227062 -6.3611093629270335e-15 0.0 0.0
-4.6135894081089646e-05 73.75868225097656 -0.0008708955720067024 -1.8877028218520153 -6.86353397226844 -19.455416962955276 -11.499674058950841 -38.64427239057598 -5.523661389861299 18.88489613512896 77.96235877142274 -11.762900863050344 -2.069018577211012e-33 1.987846675914698e-16 1.1927080055488188e-15 4.732721852119018 -41.862351466894964 4.990311260799545 -11.445602444995545 72.37989234975333 5.625438094375656 1.8636062586700292e-16 3.1060104311167175e-18 1.1554358803754182e-15 0.8203061365528023 21.874990089940702 -1.3165124217603885 1.327625700500334e-07 -1.120317685339369e-07 -2.4759638914336692 0.01539765172948892 -8.196320762877779 178.43958793649287 111.5940129661709 -12.915065888578733 -156.68810732425734 -1.7337581700478336e-06 -6.027846293255928e-07 104.82998131322853 0.0 0.0 -6.3611093629270335e-15 -116.28810658152194 -16.719857015001946 155.11252394120137 -3.231311549005809e-08 3.1721991361676047e-06 -96.78680523374716 6.3611093629270335e-15 0.0 0.0
-5.7429202570347115e-05 73.75865936279297 -0.0008682649349793792 -1.8094839868566714 -6.893848782215156 -19.40598854288839 -11.518181084223158 -38.52560995457437 -5.503438115018308 19.120681333938922 77.6565476180875 -11.976560087975399 -7.951386703658791e-16 -5.517382872562698e-33 7.951386703658791e-16 4.732782547818565 -41.738503191376175 4.997020419768868 -11.467644422676877 72.16437517053822 5.609740447112611 2.484808344893373e-17 -5.253367481199835e-35 -2.4226881362710386e-16 0.7657441513619929 21.82053670684065 -1.3034487656650593 4.323477904909606e-09 -1.1059031878292873e-06 -2.3784505175554416 -0.20643138361241287 -7.911454545956554 178.60763059935326 111.61771862373335 -12.887325069171116 -156.8167001556881 4.075886132523751e-06 -1.7231156495458848e-06 104.90752285581489 0.0 0.0 0.0 -116.51279515571807 -17.144982406446555 155.02686053959863 -9.548682851722113e-07 9.430941623856915e-07 -97.5003186563353 0.0 6.3611093629270335e-15 0.0
-5.133038212079555e-05 73.75867462158203 -0.0008704900974407792 -1.8307827301915125 -7.046403409095634 -19.366255877952703 -11.514726442144834 -37.9510937023962 -5.4386139944601455 18.48369103686656 77.10155290912184 -11.270372812836866 -7.951386703658792e-16 6.896728590703373e-33 -9.93923337957349e-16 4.638013817600138 -41.1478875387728 4.869563177869691 -11.647714951983732 71.54772851059833 5.787413567629625 2.3605679276487037e-16 4.686778328179404e-34 2.275152640792994e-16 0.8070634856910714 21.855962084837167 -1.317039228565975 1.416460519977281e-08 -6.830585477514982e-07 -2.3396871357114284 -0.3538389231971535 -7.903841723548421 178.69592067511877 111.22278741336267 -12.540028688523147 -157.05283326985935 3.2619342040464717e-06 -2.263581572662923e-07 104.86419969868203 0.0 0.0 3.1805546814635168e-15 -116.59272437538833 -17.28909036702161 155.0464922372121 2.0139988022132886e-06 1.0388154349065694e-06 -98.11180842567381 -1.7655625192200634e-31 -3.1805546814635168e-15 -6.3611093629270335e-15
-5.606095874099992e-05 73.75868225097656 -0.0008762319339439273 -1.8262394800968538 -7.033721626370643 -19.233971714240845 -11.573037742951632 -37.71832024107885 -5.43395148904195 18.685393434451015 76.60802266452325 -11.394388953949791 -7.951386703658794e-16 1.9878466759146985e-16 7.951386703658794e-16 4.781044227740973 -40.897421099855414 4.953372528723193 -11.498915739916164 71.40120644161803 5.504342244486993 3.9601632996738114e-16 -3.2014286624463294e-33 -9.263676110805603e-16 0.8161290209973654 21.819475993051032 -1.3259522411161522 1.0300833099790657e-07 2.803325072485981e-07 -2.2996137908088707 -0.15478338493594532 -7.942511803022354 178.6943560641946 110.88446554350408 -12.119965727674698 -157.27390948463272 -5.1634898575498164e-06 2.3494031700779857e-06 104.96222941401129 0.0 0.0 -6.3611093629270335e-15 -116.52818172389112 -17.38305854577269 155.04254414429704 -6.001260969560272e-06 2.065015125923949e-06 -98.8819735937267 6.3611093629270335e-15 3.531125038440127e-31 6.3611093629270335e-15
-3.6925848689861596e-05 73.7586898803711 -0.0008697909070178866 -1.854338667247059 -7.019602295602598 -19.1614248160627 -11.53602071684075 -37.81534121884515 -5.443747844407396 18.965582645062096 76.55789486763648 -11.67664327956806 0.0 0.0 -1.3914926731402886e-15 4.608198951717407 -40.80390005375079 4.807787478812088 -11.083537565575325 71.42879621437922 5.251236904097952 -6.21202086223343e-17 3.1486529454627214e-34 -5.808239506188257e-16 0.9081707748892068 21.797222079856613 -1.3463863558510052 1.7095812552090424e-07 1.3891653525295282e-06 -2.306489153039795 -0.095791043298067 -8.124453929971278 178.78874270621995 110.51745692716877 -11.58251909896228 -157.37505358774763 -2.2478592401068795e-06 -1.7402343491600406e-06 104.89687926730221 0.0 -6.3611093629270335e-15 0.0 -116.39846489928016 -17.112205064995656 155.29308140708676 -5.862051622894339e-06 -1.3079660540756416e-06 -98.98232815432266 6.361109362927033e-15 3.1805546814635164e-15 -1.7655625192200634e-31
-3.603722871048376e-05 73.75871276855469 -0.0008684599306434393 -1.731005710326777 -7.122801081069452 -19.205881019565705 -11.710182395475242 -38.13696895466226 -5.515180342156985 18.90702484277777 76.94564853386586 -11.628001813240047 -7.951386703658791e-16 8.276074308844047e-33 -1.1927080055488186e-15 4.457024214195387 -40.902439372452356 4.798491840152077 -11.144481812953273 71.90538923518248 5.351919016469633 5.218097524276082e-16 6.704105116392712e-33 1.4722489443493233e-15 0.6519439971568051 21.948178410465204 -1.305134886320238 3.0335927196220626e-09 1.2415467422224133e-06 -2.3167696775327493 -0.08399850161845077 -8.135927826512543 178.3363436058416 110.641258972302 -11.317050828503529 -157.35430445393325 1.4196964459456253e-06 3.0724739945083232e-06 105.09892331359184 -6.361109362927033e-15 1.7655625192200634e-31 -3.1805546814635164e-15 -116.15690503617817 -17.051155850204378 155.0412445048817 1.4404762397572408e-06 1.0491538823183212e-07 -99.28793791850764 -6.361109362927032e-15 0.0 0.0
-2.8875592761323787e-05 73.75871276855469 -0.0008713328279554844 -1.7218177496147813 -7.175791397777817 -19.095661498392225 -11.774791230752774 -38.37957160876635 -5.5577028149772385 19.16679608899179 77.16470869107879 -11.898820374533855 2.3854160110976388e-15 6.361109362927035e-15 -3.379339349054987e-15 4.511689047301144 -41.07767372010169 4.880702342968885 -11.230242279416066 72.19599648613048 5.385785287146808 7.454425034680117e-16 -4.525978137649088e-33 -6.957463365701443e-16 0.5790204073345995 22.074370791055653 -1.3013351545245246 -1.3758752516410594e-07 5.700809274811333e-07 -2.319430517628679 -0.06652780965931582 -8.013248354112962 178.25011166171453 110.83587196282785 -11.506454443416185 -157.24648703882414 3.6212452371374737e-06 4.384766722868271e-06 105.41365020547971 -6.361109362927033e-15 0.0 0.0 -115.99021461250004 -16.80928654866446 154.98640314135451 -2.74853428253821e-07 1.8689951280785942e-06 -99.82763124840503 6.361109362927035e-15 3.1805546814635183e-15 1.272221872585407e-14
-2.0541847334243357e-05 73.75872039794922 -0.0008680741302669048 -1.6902236018468815 -7.344431437358274 -19.09540253709554 -11.964364196555623 -38.66889858693439 -5.718809920953088 18.75695703203761 77.71381558446173 -11.39881081686774 7.951386703658792e-16 1.1034765745125397e-32 1.5902773407317584e-15 4.352829913533576 -41.31404920056206 4.791873333180695 -11.608850540069406 72.72781951330325 5.902706520797673 -3.7272125173400575e-16 3.1805546814635168e-15 -4.752195959608575e-15 0.44244611289021796 22.32412564273673 -1.2598594679956912 7.885587708642119e-07 -1.1878128728061505e-06 -2.2502503870718056 -0.18092001618332162 -7.911210015615781 177.9092369376866 111.08933432281302 -11.4035490408234 -157.24369660249405 -2.1735225387024845e-06 -1.6129690962893439e-06 105.49498562074518 -6.3611093629270335e-15 0.0 0.0 -115.85664635699888 -16.6584764692517 154.81306437664153 3.438247528072061e-06 1.908641288159415e-06 -100.29330217460186 0.0 3.1805546814635168e-15 0.0
